# xmcd
#
# Track frame offsets: 
#        150
#        7311
#        23287
#        39661
#        58862
#        81059
#        100204
#        119122
#        135987
#        157707
#        172222
#        185382
#        198642
#        211842
#
# Disc length: 2952 seconds
#
# Revision: 1
# Processed by: cddbd v1.5.2PL0 Copyright (c) Steve Scherf et al.
# Submitted via: ExactAudioCopy v0.99pb3
#
DISCID=bb0b860e
DTITLE=Vidar Busk and Voo Doodz - Jookbox Charade
DYEAR=2007
DGENRE=Blues
TTITLE0=The Message...
TTITLE1=Big Chief
TTITLE2=Junko Partner
TTITLE3=Years Since Yesterday
TTITLE4=Goodnight Moon
TTITLE5=When Did You Leave Heaven
TTITLE6=Red Lipstick
TTITLE7=New Suit
TTITLE8=Only You
TTITLE9=Keep on Loving Me Baby
TTITLE10=Mardi Gras in New Orleans
TTITLE11=From the Voo Doodz
TTITLE12=Town Without Pity
TTITLE13=Charade
EXTD=YEAR: 2007
EXTT0=
EXTT1=
EXTT2=
EXTT3=
EXTT4=
EXTT5=
EXTT6=
EXTT7=
EXTT8=
EXTT9=
EXTT10=
EXTT11=
EXTT12=
EXTT13=
PLAYORDER=
